# xmcd
#
# Track frame offsets:
# 150
# 12615
# 21514
# 37996
# 50322
# 60196
# 71383
# 86559
# 97631
# 108250
# 120367
# 138433
#
# Disc length: 2069 seconds
#
#
# Revision: 0
# Processed by: cddbd v1.5.1PL0 Copyright (c) Steve Scherf et al.
# Submitted via: FreeRIP 2.91 
#
DISCID=8b08130c
DTITLE=Valdir Vieira - Sussurrar
DYEAR=2004
DGENRE=sertanejo
TTITLE0=Seu Carinho
TTITLE1=Relva Fria
TTITLE2=Deleito da Imaginação
TTITLE3=Que que Tu Vai Fazer
TTITLE4=Boca da Sinderela
TTITLE5=A Mesma Maçã
TTITLE6=Deixa que Eu Te Dou Amor
TTITLE7=Sussurrar Baixinho
TTITLE8=Banhei a Sorte
TTITLE9=Melo o Beiço
TTITLE10=Sem Detalhes Ainda
TTITLE11=Intacto Desse Amor
EXTD=
EXTT0=
EXTT1=
EXTT2=
EXTT3=
EXTT4=
EXTT5=
EXTT6=
EXTT7=
EXTT8=
EXTT9=
EXTT10=
EXTT11=
PLAYORDER=
